<mxfile host="app.diagrams.net" modified="2021-06-04T08:46:53.247Z" agent="5.0 (Windows NT 10.0; Win64; x64) AppleWebKit/537.36 (KHTML, like Gecko) Chrome/90.0.4430.72 Safari/537.36" etag="jeQBlgErG-AfQZz_46fq" version="14.7.5" type="github">
  <diagram id="OqnlQ_nrto0VnB4AnUD3" name="Page-1">
    <mxGraphModel dx="782" dy="1582" grid="1" gridSize="10" guides="1" tooltips="1" connect="1" arrows="1" fold="1" page="1" pageScale="1" pageWidth="827" pageHeight="1169" math="0" shadow="0">
      <root>
        <mxCell id="0" />
        <mxCell id="1" parent="0" />
        <mxCell id="jl1SPefazg5a8Nsi_B-F-1" value="" style="rounded=0;whiteSpace=wrap;html=1;" vertex="1" parent="1">
          <mxGeometry x="160" y="-310" width="430" height="200" as="geometry" />
        </mxCell>
        <mxCell id="jl1SPefazg5a8Nsi_B-F-5" value="" style="html=1;shadow=0;dashed=0;align=center;verticalAlign=middle;shape=mxgraph.arrows2.arrow;dy=0.67;dx=20;notch=0;" vertex="1" parent="1">
          <mxGeometry x="140" y="-300" width="500" height="40" as="geometry" />
        </mxCell>
        <mxCell id="jl1SPefazg5a8Nsi_B-F-6" value="X" style="ellipse;whiteSpace=wrap;html=1;aspect=fixed;" vertex="1" parent="1">
          <mxGeometry x="180" y="-295" width="30" height="30" as="geometry" />
        </mxCell>
        <mxCell id="jl1SPefazg5a8Nsi_B-F-7" value="&lt;font style=&quot;font-size: 17px&quot;&gt;+&lt;/font&gt;" style="ellipse;whiteSpace=wrap;html=1;aspect=fixed;" vertex="1" parent="1">
          <mxGeometry x="340" y="-295" width="30" height="30" as="geometry" />
        </mxCell>
      </root>
    </mxGraphModel>
  </diagram>
</mxfile>
